#!OML:ASF I:\Actors\actors\Patient Classification 1\Patient 1\Session 1\Subject1.ASF
:FULLY-SPECIFIED
:DEGREES
1215
root 0.848803 17.4458 9.53891 9.20303 -1.28733 -8.90122
lowerback -1.58406 4.6926 7.69955
upperback -9.07146 6.5894 0.144605
thorax -7.87714 2.72569 -4.41505
lowerneck -10.6544 2.48656 5.61531
upperneck 39.4961 2.04118 1.23923
head 15.8629 1.96373 -0.110965
rclavicle -1.44119e-014 -1.27222e-014
rhumerus -24.5704 51.1726 -109.87
rradius 93.8434
rwrist 23.2742
rhand -1.87013 -33.8552
rfingers 7.12502
rthumb 23.798 -782.401
lclavicle -1.44119e-014 -1.27222e-014
lhumerus -50.6402 -6.28226 95.7262
lradius 110.545
lwrist 77.2783
lhand -19.7857 10.0504
lfingers 7.12502
lthumb 6.54672 39.9292
rfemur -1.35156 25.7323 25.46
rtibia 1.46987
rfoot -14.2245 -29.0538
rtoes 3.77141
lfemur 8.27674 -45.8557 -14.0966
ltibia -4.67057
lfoot -23.5048 53.1593
ltoes 9.40259
1216
root 0.851365 17.45 9.54276 9.16936 -1.2212 -8.87432
lowerback -1.3696 4.649 7.66617
upperback -9.08475 6.55163 0.132629
thorax -8.02316 2.70078 -4.43035
lowerneck -10.7516 2.41362 5.49383
upperneck 38.5675 1.87878 1.4154
head 15.4023 1.88057 -0.0546956
rclavicle -2.65378e-014 3.10104e-014
rhumerus -25.0732 50.9121 -110.1
rradius 94.1763
rwrist 23.1075
rhand -1.63842 -34.0224
rfingers 7.12502
rthumb 24.0202 -782.539
lclavicle -2.65378e-014 3.10104e-014
lhumerus -50.8008 -6.32995 95.8443
lradius 110.716
lwrist 77.2607
lhand -20.0246 10.325
lfingers 7.12502
lthumb 6.31604 40.2108
rfemur -1.30725 25.6193 25.433
rtibia 1.45839
rfoot -14.1561 -29.0493
rtoes 3.6281
lfemur 8.25018 -45.7475 -14.106
ltibia -4.64444
lfoot -23.3544 52.9929
ltoes 9.31729
1217
root 0.852044 17.4536 9.54537 9.1778 -1.08976 -8.79248
lowerback -1.19432 4.59241 7.57779
upperback -9.1166 6.48966 0.0914804
thorax -8.17162 2.6664 -4.44284
lowerneck -10.8124 2.34413 5.35976
upperneck 37.4724 1.6806 1.7338
head 14.8667 1.79582 0.053555
rclavicle 3.47873e-015 -1.66979e-014
rhumerus -25.604 50.5287 -110.311
rradius 94.5862
rwrist 22.6734
rhand -1.36828 -34.0174
rfingers 7.12502
rthumb 24.2792 -782.5
lclavicle 3.47873e-015 -1.66979e-014
lhumerus -51.0023 -6.44144 95.9761
lradius 110.859
lwrist 77.1979
lhand -20.218 10.5097
lfingers 7.12502
lthumb 6.12931 40.401
rfemur -1.3045 25.5314 25.345
rtibia 1.44891
rfoot -14.1671 -29.1397
rtoes 3.30411
lfemur 8.09243 -45.6317 -14.0748
ltibia -4.58078
lfoot -23.4584 52.7054
ltoes 9.62656
1218
root 0.852414 17.4579 9.54755 9.21597 -0.932085 -8.74198
lowerback -1.21438 4.48614 7.29142
upperback -9.09767 6.34359 0.231665
thorax -8.19755 2.62049 -4.13239
lowerneck -10.9216 2.30622 5.08413
upperneck 36.4346 1.56085 2.08071
head 14.3871 1.7294 0.209266
rclavicle -4.11484e-014 7.95139e-015
rhumerus -26.273 50.3718 -110.49
rradius 95.0525
rwrist 22.146
rhand -1.22423 -34.2132
rfingers 7.12502
rthumb 24.4173 -782.677
lclavicle -4.11484e-014 7.95139e-015
lhumerus -51.1754 -6.34479 96.3041
lradius 110.932
lwrist 77.1157
lhand -20.0873 10.4666
lfingers 7.12502
lthumb 6.25553 40.3543
rfemur -1.35061 25.4142 25.2726
rtibia 1.47239
rfoot -14.2658 -29.1907
rtoes 3.37331
lfemur 7.87201 -45.5254 -13.9646
ltibia -4.50464
lfoot -23.582 52.4349
ltoes 9.77684
1219
root 0.851577 17.4635 9.54862 9.24387 -0.716291 -8.78017
lowerback -1.33621 4.33728 6.92656
upperback -9.01845 6.13573 0.53167
thorax -8.12656 2.56245 -3.59693
lowerneck -10.9135 2.26172 4.76279
upperneck 35.2104 1.50318 2.307
head 13.8131 1.66391 0.324713
rclavicle -2.48481e-014 -1.66979e-014
rhumerus -27.1083 50.474 -110.693
rradius 95.5421
rwrist 21.9888
rhand -1.43549 -35.139
rfingers 7.12502
rthumb 24.2147 -783.63
lclavicle -2.48481e-014 -1.66979e-014
lhumerus -51.3064 -6.15459 96.8042
lradius 110.959
lwrist 77.0439
lhand -19.8422 10.1608
lfingers 7.12502
lthumb 6.49213 40.0413
rfemur -1.39563 25.2657 25.3146
rtibia 1.5156
rfoot -14.3871 -29.238
rtoes 3.7847
lfemur 7.57152 -45.2825 -13.658
ltibia -4.44481
lfoot -23.3129 52.0538
ltoes 9.46598
